<svg xmlns="http://www.w3.org/2000/svg" width="980" height="640" viewBox="0 0 980 640">
  <defs>
    <linearGradient id="bg" x1="0" x2="1" y1="0" y2="1">
      <stop offset="0%" stop-color="#0d213a"/>
      <stop offset="100%" stop-color="#07111f"/>
    </linearGradient>
    <linearGradient id="gold" x1="0" x2="1" y1="0" y2="1">
      <stop offset="0%" stop-color="#f7c948"/>
      <stop offset="100%" stop-color="#ff9f1a"/>
    </linearGradient>
    <linearGradient id="area" x1="0" x2="0" y1="0" y2="1">
      <stop offset="0%" stop-color="#f7c948" stop-opacity="0.35"/>
      <stop offset="100%" stop-color="#f7c948" stop-opacity="0.03"/>
    </linearGradient>
  </defs>
  <rect width="980" height="640" rx="34" fill="url(#bg)"/>
  <rect x="28" y="28" width="924" height="74" rx="22" fill="#102844"/>
  <circle cx="66" cy="65" r="8" fill="#ff5f57"/>
  <circle cx="94" cy="65" r="8" fill="#ffbd2e"/>
  <circle cx="122" cy="65" r="8" fill="#28c840"/>
  <text x="160" y="72" fill="#ffffff" font-family="Arial" font-size="22" font-weight="800">CQPay Collection Success Rate</text>
  <rect x="790" y="48" width="122" height="34" rx="17" fill="#12361f"/>
  <text x="851" y="71" fill="#86efac" font-family="Arial" font-size="14" font-weight="800" text-anchor="middle">Live 24/7</text>

  <g font-family="Arial">
    <rect x="40" y="128" width="205" height="128" rx="24" fill="#102844"/>
    <text x="66" y="170" fill="#9fb2ca" font-size="16">Daily Overall</text>
    <text x="66" y="218" fill="#f7c948" font-size="46" font-weight="900">60%+</text>

    <rect x="270" y="128" width="205" height="128" rx="24" fill="#102844"/>
    <text x="296" y="170" fill="#9fb2ca" font-size="16">Premium Gaming</text>
    <text x="296" y="218" fill="#f7c948" font-size="46" font-weight="900">75%+</text>

    <rect x="500" y="128" width="205" height="128" rx="24" fill="#102844"/>
    <text x="526" y="170" fill="#9fb2ca" font-size="16">UPI / Card</text>
    <text x="526" y="218" fill="#ffffff" font-size="34" font-weight="900">Active</text>

    <rect x="730" y="128" width="205" height="128" rx="24" fill="#102844"/>
    <text x="756" y="170" fill="#9fb2ca" font-size="16">Route Status</text>
    <text x="756" y="218" fill="#86efac" font-size="34" font-weight="900">Stable</text>
  </g>

  <rect x="40" y="286" width="900" height="300" rx="26" fill="#0a1d33" stroke="#1b3553"/>
  <g opacity="0.12" stroke="#fff">
    <path d="M80 346H900M80 406H900M80 466H900M80 526H900"/>
    <path d="M180 320V555M320 320V555M460 320V555M600 320V555M740 320V555M880 320V555"/>
  </g>
  <path d="M80 505 C140 462 186 480 246 424 C310 365 352 410 414 368 C482 322 530 374 590 335 C650 296 700 322 760 285 C818 250 870 264 900 246 L900 555 L80 555 Z" fill="url(#area)"/>
  <path d="M80 505 C140 462 186 480 246 424 C310 365 352 410 414 368 C482 322 530 374 590 335 C650 296 700 322 760 285 C818 250 870 264 900 246" fill="none" stroke="#f7c948" stroke-width="7" stroke-linecap="round"/>
  <text x="80" y="325" fill="#ffffff" font-family="Arial" font-size="18" font-weight="800">Collection Success Rate Report</text>
  <text x="80" y="612" fill="#9fb2ca" font-family="Arial" font-size="15">Demo screenshot placeholder — replace this SVG with your real success rate screenshot.</text>
</svg>