<svg xmlns="http://www.w3.org/2000/svg" width="980" height="640" viewBox="0 0 980 640">
  <defs>
    <linearGradient id="bg" x1="0" x2="1" y1="0" y2="1">
      <stop offset="0%" stop-color="#ffffff"/>
      <stop offset="100%" stop-color="#eef3f9"/>
    </linearGradient>
    <linearGradient id="bar" x1="0" x2="1" y1="0" y2="0">
      <stop offset="0%" stop-color="#f4c95d"/>
      <stop offset="100%" stop-color="#16a34a"/>
    </linearGradient>
  </defs>
  <rect width="980" height="640" rx="34" fill="url(#bg)"/>
  <rect x="34" y="34" width="912" height="74" rx="22" fill="#071528"/>
  <text x="70" y="80" fill="#fff" font-family="Arial" font-size="24" font-weight="800">Daily Capacity & Night Operation</text>
  <rect x="780" y="54" width="126" height="34" rx="17" fill="#153622"/>
  <text x="843" y="76" fill="#86efac" font-family="Arial" font-size="14" font-weight="800" text-anchor="middle">Night Stable</text>

  <g font-family="Arial">
    <rect x="42" y="138" width="270" height="124" rx="24" fill="#fff" stroke="#e2e8f0"/>
    <text x="72" y="178" fill="#64748b" font-size="16">Daily Capacity</text>
    <text x="72" y="226" fill="#071528" font-size="42" font-weight="900">Sufficient</text>

    <rect x="354" y="138" width="270" height="124" rx="24" fill="#fff" stroke="#e2e8f0"/>
    <text x="384" y="178" fill="#64748b" font-size="16">Night Orders</text>
    <text x="384" y="226" fill="#071528" font-size="42" font-weight="900">Running</text>

    <rect x="666" y="138" width="270" height="124" rx="24" fill="#f8ecd0"/>
    <text x="696" y="178" fill="#8a6200" font-size="16">Capacity Planning</text>
    <text x="696" y="226" fill="#071528" font-size="38" font-weight="900">Ready</text>
  </g>

  <rect x="42" y="300" width="894" height="270" rx="26" fill="#fff" stroke="#e2e8f0"/>
  <text x="72" y="348" fill="#071528" font-family="Arial" font-size="20" font-weight="800">Capacity Pool Usage</text>

  <g font-family="Arial">
    <text x="72" y="398" fill="#64748b" font-size="15">Collection Capacity</text>
    <rect x="260" y="382" width="560" height="24" rx="12" fill="#e2e8f0"/>
    <rect x="260" y="382" width="386" height="24" rx="12" fill="url(#bar)"/>
    <text x="840" y="401" fill="#16a34a" font-size="15" font-weight="800">69%</text>

    <text x="72" y="452" fill="#64748b" font-size="15">Payout Capacity</text>
    <rect x="260" y="436" width="560" height="24" rx="12" fill="#e2e8f0"/>
    <rect x="260" y="436" width="314" height="24" rx="12" fill="url(#bar)"/>
    <text x="840" y="455" fill="#16a34a" font-size="15" font-weight="800">56%</text>

    <text x="72" y="506" fill="#64748b" font-size="15">Night Channel Health</text>
    <rect x="260" y="490" width="560" height="24" rx="12" fill="#e2e8f0"/>
    <rect x="260" y="490" width="504" height="24" rx="12" fill="url(#bar)"/>
    <text x="840" y="509" fill="#16a34a" font-size="15" font-weight="800">90%</text>
  </g>

  <text x="42" y="612" fill="#64748b" font-family="Arial" font-size="15">Demo placeholder — replace with real capacity and night operation screenshot before official launch.</text>
</svg>