<svg xmlns="http://www.w3.org/2000/svg" width="980" height="640" viewBox="0 0 980 640">
  <defs><linearGradient id="bg" x1="0" x2="1" y1="0" y2="1"><stop offset="0%" stop-color="#ffffff"/><stop offset="100%" stop-color="#eef3f9"/></linearGradient></defs>
  <rect width="980" height="640" rx="34" fill="url(#bg)"/>
  <rect x="34" y="34" width="912" height="74" rx="22" fill="#071528"/>
  <text x="70" y="80" fill="#fff" font-family="Arial" font-size="24" font-weight="800">Payout Speed Monitor</text>
  <rect x="786" y="54" width="120" height="34" rx="17" fill="#153622"/>
  <text x="846" y="76" fill="#86efac" font-family="Arial" font-size="14" font-weight="800" text-anchor="middle">Fast</text>
  <g font-family="Arial">
    <rect x="42" y="138" width="282" height="124" rx="24" fill="#fff" stroke="#e2e8f0"/>
    <text x="72" y="178" fill="#64748b" font-size="16">Average Speed</text>
    <text x="72" y="226" fill="#071528" font-size="46" font-weight="900">38s</text>
    <rect x="350" y="138" width="282" height="124" rx="24" fill="#fff" stroke="#e2e8f0"/>
    <text x="380" y="178" fill="#64748b" font-size="16">Payout Status</text>
    <text x="380" y="226" fill="#16a34a" font-size="38" font-weight="900">Done</text>
    <rect x="658" y="138" width="278" height="124" rx="24" fill="#f8ecd0"/>
    <text x="688" y="178" fill="#8a6200" font-size="16">Callback</text>
    <text x="688" y="226" fill="#071528" font-size="38" font-weight="900">Real-time</text>
  </g>
  <rect x="42" y="300" width="894" height="270" rx="26" fill="#fff" stroke="#e2e8f0"/>
  <g font-family="Arial" font-size="15">
    <text x="70" y="346" fill="#64748b" font-weight="800">Order ID</text><text x="286" y="346" fill="#64748b" font-weight="800">Amount</text><text x="430" y="346" fill="#64748b" font-weight="800">Submit</text><text x="610" y="346" fill="#64748b" font-weight="800">Completed</text><text x="790" y="346" fill="#64748b" font-weight="800">Speed</text>
    <text x="70" y="398" fill="#0f172a">PY2026****1482</text><text x="286" y="398" fill="#0f172a">₹5,000</text><text x="430" y="398" fill="#0f172a">12:30:12</text><text x="610" y="398" fill="#0f172a">12:30:49</text><text x="790" y="398" fill="#16a34a" font-weight="800">37s</text>
    <text x="70" y="450" fill="#0f172a">PY2026****1491</text><text x="286" y="450" fill="#0f172a">₹2,800</text><text x="430" y="450" fill="#0f172a">12:31:06</text><text x="610" y="450" fill="#0f172a">12:31:39</text><text x="790" y="450" fill="#16a34a" font-weight="800">33s</text>
    <text x="70" y="502" fill="#0f172a">PY2026****1507</text><text x="286" y="502" fill="#0f172a">₹9,500</text><text x="430" y="502" fill="#0f172a">12:32:18</text><text x="610" y="502" fill="#0f172a">12:33:02</text><text x="790" y="502" fill="#16a34a" font-weight="800">44s</text>
  </g>
  <text x="42" y="612" fill="#64748b" font-family="Arial" font-size="15">Demo screenshot placeholder — replace with real payout speed screenshot.</text>
</svg>