<svg xmlns="http://www.w3.org/2000/svg" width="720" height="260" viewBox="0 0 720 260">
  <defs>
    <linearGradient id="bg" x1="0" x2="1" y1="0" y2="1"><stop offset="0%" stop-color="#10243f"/><stop offset="100%" stop-color="#071528"/></linearGradient>
    <linearGradient id="area" x1="0" x2="0" y1="0" y2="1"><stop offset="0%" stop-color="#f4c95d" stop-opacity="0.35"/><stop offset="100%" stop-color="#f4c95d" stop-opacity="0.02"/></linearGradient>
  </defs>
  <rect width="720" height="260" rx="24" fill="url(#bg)"/>
  <g opacity="0.12" stroke="#fff"><path d="M40 40H680M40 92H680M40 144H680M40 196H680"/><path d="M100 30V220M220 30V220M340 30V220M460 30V220M580 30V220"/></g>
  <path d="M40 188 C95 150 125 165 176 120 C228 76 268 110 318 82 C369 54 410 92 462 66 C520 38 570 56 626 30 C660 16 690 22 680 20 L680 220 L40 220 Z" fill="url(#area)"/>
  <path d="M40 188 C95 150 125 165 176 120 C228 76 268 110 318 82 C369 54 410 92 462 66 C520 38 570 56 626 30 C660 16 690 22 680 20" fill="none" stroke="#f4c95d" stroke-width="6" stroke-linecap="round"/>
  <g font-family="Arial, sans-serif">
    <text x="42" y="36" fill="#cbd5e1" font-size="16">Success Rate Trend</text>
    <text x="42" y="72" fill="#f4c95d" font-size="34" font-weight="900">60%+ / 75%+</text>
    <text x="42" y="98" fill="#cbd5e1" font-size="15">Stable collection performance</text>
  </g>
</svg>