<svg xmlns="http://www.w3.org/2000/svg" width="980" height="640" viewBox="0 0 980 640">
  <defs>
    <linearGradient id="bg" x1="0" x2="1" y1="0" y2="1">
      <stop offset="0%" stop-color="#0d213a"/>
      <stop offset="100%" stop-color="#07111f"/>
    </linearGradient>
  </defs>
  <rect width="980" height="640" rx="34" fill="url(#bg)"/>
  <rect x="28" y="28" width="924" height="74" rx="22" fill="#102844"/>
  <circle cx="66" cy="65" r="8" fill="#ff5f57"/>
  <circle cx="94" cy="65" r="8" fill="#ffbd2e"/>
  <circle cx="122" cy="65" r="8" fill="#28c840"/>
  <text x="160" y="72" fill="#ffffff" font-family="Arial" font-size="22" font-weight="800">CQPay Merchant Dashboard</text>
  <rect x="780" y="48" width="132" height="34" rx="17" fill="#2c2510"/>
  <text x="846" y="71" fill="#f7c948" font-family="Arial" font-size="14" font-weight="800" text-anchor="middle">API Docs</text>

  <rect x="42" y="126" width="190" height="430" rx="26" fill="#08172a"/>
  <g font-family="Arial" font-size="16" fill="#9fb2ca">
    <text x="72" y="176">Dashboard</text>
    <text x="72" y="224">Collection Orders</text>
    <text x="72" y="272">Payout Orders</text>
    <text x="72" y="320">Balance</text>
    <text x="72" y="368">Callback Logs</text>
    <text x="72" y="416">API Documents</text>
    <text x="72" y="464">Reports</text>
  </g>

  <g font-family="Arial">
    <rect x="260" y="126" width="200" height="112" rx="22" fill="#102844"/>
    <text x="286" y="164" fill="#9fb2ca" font-size="15">Today Collection</text>
    <text x="286" y="210" fill="#f7c948" font-size="34" font-weight="900">₹8.42M</text>

    <rect x="486" y="126" width="200" height="112" rx="22" fill="#102844"/>
    <text x="512" y="164" fill="#9fb2ca" font-size="15">Today Payout</text>
    <text x="512" y="210" fill="#f7c948" font-size="34" font-weight="900">₹6.93M</text>

    <rect x="712" y="126" width="226" height="112" rx="22" fill="#102844"/>
    <text x="738" y="164" fill="#9fb2ca" font-size="15">Success Rate</text>
    <text x="738" y="210" fill="#86efac" font-size="34" font-weight="900">67.8%</text>
  </g>

  <rect x="260" y="270" width="678" height="284" rx="26" fill="#0a1d33" stroke="#1b3553"/>
  <g font-family="Arial" font-size="15">
    <text x="286" y="314" fill="#9fb2ca" font-weight="800">Order</text>
    <text x="456" y="314" fill="#9fb2ca" font-weight="800">Type</text>
    <text x="576" y="314" fill="#9fb2ca" font-weight="800">Amount</text>
    <text x="708" y="314" fill="#9fb2ca" font-weight="800">Status</text>
    <text x="820" y="314" fill="#9fb2ca" font-weight="800">Callback</text>

    <g fill="#c6d4e6">
      <text x="286" y="360">CQ****9012</text><text x="456" y="360">UPI</text><text x="576" y="360">₹3,000</text><text x="708" y="360" fill="#86efac" font-weight="800">Success</text><text x="820" y="360" fill="#86efac">OK</text>
      <text x="286" y="406">CQ****9048</text><text x="456" y="406">Card</text><text x="576" y="406">₹7,500</text><text x="708" y="406" fill="#86efac" font-weight="800">Success</text><text x="820" y="406" fill="#86efac">OK</text>
      <text x="286" y="452">CQ****9105</text><text x="456" y="452">Payout</text><text x="576" y="452">₹2,100</text><text x="708" y="452" fill="#86efac" font-weight="800">Done</text><text x="820" y="452" fill="#86efac">OK</text>
      <text x="286" y="498">CQ****9186</text><text x="456" y="498">UPI</text><text x="576" y="498">₹4,800</text><text x="708" y="498" fill="#f7c948" font-weight="800">Pending</text><text x="820" y="498" fill="#f7c948">Wait</text>
    </g>
  </g>
  <text x="42" y="612" fill="#9fb2ca" font-family="Arial" font-size="15">Demo screenshot placeholder — replace this SVG with your real merchant dashboard screenshot.</text>
</svg>