<svg xmlns="http://www.w3.org/2000/svg" width="920" height="560" viewBox="0 0 920 560">
  <defs>
    <linearGradient id="bg" x1="0" x2="1" y1="0" y2="1"><stop offset="0%" stop-color="#ffffff"/><stop offset="100%" stop-color="#eef3f9"/></linearGradient>
    <linearGradient id="gold" x1="0" x2="1" y1="0" y2="1"><stop offset="0%" stop-color="#f4c95d"/><stop offset="100%" stop-color="#d9a52f"/></linearGradient>
  </defs>
  <rect width="920" height="560" rx="30" fill="url(#bg)"/>
  <rect x="34" y="34" width="852" height="70" rx="22" fill="#071528"/>
  <text x="64" y="78" fill="#fff" font-family="Arial" font-size="22" font-weight="800">CQPay Merchant Dashboard</text>
  <rect x="742" y="52" width="112" height="34" rx="17" fill="#153622"/>
  <text x="798" y="74" fill="#86efac" font-family="Arial" font-size="14" font-weight="800" text-anchor="middle">Live</text>

  <g font-family="Arial">
    <rect x="34" y="130" width="202" height="112" rx="24" fill="#fff" stroke="#e2e8f0"/>
    <text x="58" y="168" fill="#64748b" font-size="14">Collection</text>
    <text x="58" y="210" fill="#071528" font-size="36" font-weight="900">₹8.42M</text>

    <rect x="260" y="130" width="202" height="112" rx="24" fill="#fff" stroke="#e2e8f0"/>
    <text x="284" y="168" fill="#64748b" font-size="14">Payout</text>
    <text x="284" y="210" fill="#071528" font-size="36" font-weight="900">₹6.93M</text>

    <rect x="486" y="130" width="172" height="112" rx="24" fill="#fff" stroke="#e2e8f0"/>
    <text x="510" y="168" fill="#64748b" font-size="14">Success</text>
    <text x="510" y="210" fill="#16a34a" font-size="36" font-weight="900">67.8%</text>

    <rect x="682" y="130" width="204" height="112" rx="24" fill="url(#gold)"/>
    <text x="706" y="168" fill="#4d3500" font-size="14">Avg Payout</text>
    <text x="706" y="210" fill="#071528" font-size="36" font-weight="900">38s</text>
  </g>

  <rect x="34" y="270" width="852" height="240" rx="26" fill="#fff" stroke="#e2e8f0"/>
  <g font-family="Arial" font-size="15">
    <text x="62" y="316" fill="#64748b" font-weight="800">Order</text>
    <text x="248" y="316" fill="#64748b" font-weight="800">Type</text>
    <text x="386" y="316" fill="#64748b" font-weight="800">Amount</text>
    <text x="544" y="316" fill="#64748b" font-weight="800">Status</text>
    <text x="700" y="316" fill="#64748b" font-weight="800">Callback</text>

    <text x="62" y="365" fill="#0f172a">CQ****9012</text><text x="248" y="365" fill="#0f172a">UPI</text><text x="386" y="365" fill="#0f172a">₹3,000</text><text x="544" y="365" fill="#16a34a" font-weight="800">Success</text><text x="700" y="365" fill="#16a34a">OK</text>
    <text x="62" y="414" fill="#0f172a">CQ****9048</text><text x="248" y="414" fill="#0f172a">Card</text><text x="386" y="414" fill="#0f172a">₹7,500</text><text x="544" y="414" fill="#16a34a" font-weight="800">Success</text><text x="700" y="414" fill="#16a34a">OK</text>
    <text x="62" y="463" fill="#0f172a">CQ****9105</text><text x="248" y="463" fill="#0f172a">Payout</text><text x="386" y="463" fill="#0f172a">₹2,100</text><text x="544" y="463" fill="#16a34a" font-weight="800">Done</text><text x="700" y="463" fill="#16a34a">OK</text>
  </g>
</svg>