<svg xmlns="http://www.w3.org/2000/svg" width="980" height="640" viewBox="0 0 980 640">
  <defs>
    <linearGradient id="bg" x1="0" x2="1" y1="0" y2="1">
      <stop offset="0%" stop-color="#0d213a"/>
      <stop offset="100%" stop-color="#07111f"/>
    </linearGradient>
  </defs>
  <rect width="980" height="640" rx="34" fill="url(#bg)"/>
  <rect x="28" y="28" width="924" height="74" rx="22" fill="#102844"/>
  <circle cx="66" cy="65" r="8" fill="#ff5f57"/>
  <circle cx="94" cy="65" r="8" fill="#ffbd2e"/>
  <circle cx="122" cy="65" r="8" fill="#28c840"/>
  <text x="160" y="72" fill="#ffffff" font-family="Arial" font-size="22" font-weight="800">CQPay Payout Speed Monitor</text>
  <rect x="772" y="48" width="140" height="34" rx="17" fill="#12361f"/>
  <text x="842" y="71" fill="#86efac" font-family="Arial" font-size="14" font-weight="800" text-anchor="middle">Fast Payout</text>

  <g font-family="Arial">
    <rect x="42" y="130" width="280" height="128" rx="24" fill="#102844"/>
    <text x="72" y="172" fill="#9fb2ca" font-size="16">Average Speed</text>
    <text x="72" y="220" fill="#f7c948" font-size="46" font-weight="900">38s</text>

    <rect x="350" y="130" width="280" height="128" rx="24" fill="#102844"/>
    <text x="380" y="172" fill="#9fb2ca" font-size="16">Payout Status</text>
    <text x="380" y="220" fill="#86efac" font-size="40" font-weight="900">Completed</text>

    <rect x="658" y="130" width="280" height="128" rx="24" fill="#102844"/>
    <text x="688" y="172" fill="#9fb2ca" font-size="16">Callback</text>
    <text x="688" y="220" fill="#ffffff" font-size="40" font-weight="900">Real-time</text>
  </g>

  <rect x="42" y="292" width="896" height="276" rx="26" fill="#0a1d33" stroke="#1b3553"/>
  <g font-family="Arial" font-size="15">
    <text x="70" y="334" fill="#9fb2ca" font-weight="800">Order ID</text>
    <text x="286" y="334" fill="#9fb2ca" font-weight="800">Amount</text>
    <text x="430" y="334" fill="#9fb2ca" font-weight="800">Submit Time</text>
    <text x="610" y="334" fill="#9fb2ca" font-weight="800">Completed</text>
    <text x="790" y="334" fill="#9fb2ca" font-weight="800">Speed</text>

    <g fill="#c6d4e6">
      <text x="70" y="382">PY2026****1482</text><text x="286" y="382">₹5,000</text><text x="430" y="382">12:30:12</text><text x="610" y="382">12:30:49</text><text x="790" y="382" fill="#86efac" font-weight="800">37s</text>
      <text x="70" y="430">PY2026****1491</text><text x="286" y="430">₹2,800</text><text x="430" y="430">12:31:06</text><text x="610" y="430">12:31:39</text><text x="790" y="430" fill="#86efac" font-weight="800">33s</text>
      <text x="70" y="478">PY2026****1507</text><text x="286" y="478">₹9,500</text><text x="430" y="478">12:32:18</text><text x="610" y="478">12:33:02</text><text x="790" y="478" fill="#86efac" font-weight="800">44s</text>
      <text x="70" y="526">PY2026****1518</text><text x="286" y="526">₹1,200</text><text x="430" y="526">12:33:20</text><text x="610" y="526">12:33:51</text><text x="790" y="526" fill="#86efac" font-weight="800">31s</text>
    </g>
  </g>
  <text x="42" y="612" fill="#9fb2ca" font-family="Arial" font-size="15">Demo screenshot placeholder — replace this SVG with your real payout speed screenshot.</text>
</svg>